<?xml version="1.0" standalone="no"?>
<!DOCTYPE svg PUBLIC "-//W3C//DTD SVG 20010904//EN"
 "http://www.w3.org/TR/2001/REC-SVG-20010904/DTD/svg10.dtd">
<svg version="1.0" xmlns="http://www.w3.org/2000/svg"
 width="512.000000pt" height="512.000000pt" viewBox="0 0 512.000000 512.000000"
 preserveAspectRatio="xMidYMid meet">

<g transform="translate(0.000000,512.000000) scale(0.100000,-0.100000)"
fill="#000000" stroke="none">
<path d="M2355 4894 c-778 -81 -1419 -488 -1817 -1154 -144 -241 -244 -524
-295 -835 -25 -155 -25 -535 0 -690 51 -311 151 -594 295 -835 373 -624 954
-1018 1677 -1137 155 -25 535 -25 690 0 723 119 1304 513 1677 1137 144 241
244 524 295 835 25 155 25 535 0 690 -51 311 -151 594 -295 835 -368 616 -944
1012 -1647 1131 -116 20 -474 34 -580 23z m446 -1186 c55 -24 110 -78 135
-133 21 -44 24 -65 24 -175 l0 -125 -203 5 -204 5 -37 30 c-83 66 -131 94
-178 106 -80 19 -164 6 -250 -39 -5 -2 -8 29 -8 70 0 89 28 157 85 206 73 65
109 71 380 68 175 -1 227 -5 256 -18z m-458 -424 c18 -9 49 -32 71 -51 74 -67
112 -77 294 -81 l162 -4 0 -153 c0 -199 -16 -258 -95 -343 -135 -146 -351
-156 -489 -24 -100 96 -116 156 -116 439 0 191 2 213 18 222 27 16 119 13 155
-5z m-58 -1321 c103 -236 198 -449 211 -475 40 -80 90 -77 132 10 16 31 107
236 203 454 95 219 177 394 181 390 15 -15 28 -153 28 -312 l0 -166 -34 -12
c-45 -17 -92 -71 -106 -123 -39 -145 123 -270 255 -196 73 41 108 123 86 198
-14 48 -60 102 -101 119 l-30 12 0 197 c0 173 -6 237 -26 304 -7 22 17 22 100
1 203 -52 392 -207 487 -399 63 -129 79 -210 79 -407 l0 -168 -75 0 -75 0 0
259 c0 224 -2 260 -16 272 -11 9 -20 10 -32 2 -15 -9 -17 -40 -20 -272 l-2
-261 -970 0 -970 0 0 259 c0 224 -2 260 -16 272 -11 9 -20 10 -32 2 -15 -9
-17 -40 -20 -272 l-2 -261 -75 0 -75 0 0 168 c0 136 4 184 20 248 64 252 256
463 497 543 82 28 84 27 67 -14 -7 -19 -14 -43 -14 -54 0 -14 -14 -26 -47 -41
-59 -26 -89 -53 -115 -105 -18 -35 -23 -75 -36 -322 -12 -228 -12 -286 -2
-298 15 -19 130 -21 148 -3 32 32 1 68 -57 68 -30 0 -31 1 -26 43 3 23 10 136
16 252 9 178 13 215 30 241 52 85 189 81 234 -6 11 -22 19 -82 25 -203 5 -94
12 -207 15 -249 l5 -78 -30 0 c-41 0 -70 -16 -70 -38 0 -31 22 -42 81 -42 89
0 89 0 88 94 0 147 -26 500 -38 531 -17 42 -65 89 -113 111 -44 20 -45 28 -8
112 38 85 40 82 245 -385z m148 302 c26 -4 47 -9 47 -12 0 -9 -92 -173 -99
-178 -7 -3 -71 130 -108 222 -3 7 15 5 54 -7 32 -10 80 -21 106 -25z m366 -78
c-29 -64 -55 -114 -60 -112 -10 7 -102 176 -97 179 1 2 31 8 65 15 35 7 80 18
100 25 21 8 39 13 41 11 1 -1 -21 -54 -49 -118z m-190 -38 c51 -95 49 -99 -49
-99 -98 0 -100 4 -49 99 24 44 46 81 49 81 3 0 25 -37 49 -81z m-180 -148 c9
-6 11 -14 4 -26 -10 -18 -15 -15 -26 18 -7 19 0 21 22 8z m284 -8 c-11 -33
-16 -36 -26 -18 -7 12 -5 20 4 26 22 13 29 11 22 -8z m-68 -115 l38 -91 -59
-113 c-32 -63 -61 -114 -64 -114 -3 0 -32 51 -64 114 l-59 113 38 91 38 92 47
0 47 0 38 -92z m502 -123 c31 -35 31 -102 2 -134 -47 -50 -111 -50 -154 1 -43
51 -29 123 30 157 32 19 97 6 122 -24z"/>
</g>
</svg>
